# xmcd
#
# Track frame offsets:
#	150
#	19121
#	35063
#	53727
#	70716
#	90526
#	113412
#	133142
#	155836
#	183167
#	199903
#	222536
#	244816
#	246341
#	259027
#	277781
#
# Disc length: 4220 seconds
#
# Revision: 1
# Processed by: cddbd v1.5.1PL0 Copyright (c) Steve Scherf et al.
# Submitted via: audiograbber 1.83.01
#
DISCID=e5107a10
DTITLE=Beyoncé - Dangerously In Love
DYEAR=1900
DGENRE=
TTITLE0=Crazy In Love
TTITLE1=Naughty Girl
TTITLE2=Baby Boy
TTITLE3=Hip Hop Star
TTITLE4=Be With You
TTITLE5=Me, Myself And I
TTITLE6=Yes
TTITLE7=Signs
TTITLE8=Speechless
TTITLE9=That's How You Like It
TTITLE10=The Closer I Get To You
TTITLE11=Dangerously In Love 2
TTITLE12=Beyoncé Interlude
TTITLE13=Gift From Virgo
TTITLE14=Work It Out
TTITLE15=Bonnie and Clyde '03
EXTD=
EXTT0=
EXTT1=
EXTT2=
EXTT3=
EXTT4=
EXTT5=
EXTT6=
EXTT7=
EXTT8=
EXTT9=
EXTT10=
EXTT11=
EXTT12=
EXTT13=
EXTT14=
EXTT15=
PLAYORDER=
